<svg fill="none" height="500" viewBox="0 0 500 500" width="500" xmlns="http://www.w3.org/2000/svg"><path d="m0 0h500v500h-500z" fill="#fff9f0"/><path d="m158.484 243.017c1.218-3.031 4.156-5.017 7.423-5.017h63.106c2.807 0 4.884 2.611 4.253 5.346-.77 3.337 2.426 6.22 5.666 5.111l29.309-10.026c.834-.285 1.709-.431 2.59-.431h91.43c6.891 0 10.558 8.131 5.996 13.296l-44.112 49.944c-2.658 3.01-2.673 7.524-.036 10.551l68.344 78.454c4.51 5.177.833 13.255-6.032 13.255h-118.843c-.716 0-1.428-.096-2.117-.285l-74.07-20.324c-3.925-1.077-8.033.964-9.545 4.744l-4.334 10.836c-1.215 3.037-4.157 5.029-7.428 5.029h-64.248c-5.665 0-9.5352-5.726-7.423-10.983z" fill="#404040"/><ellipse cx="244" cy="313" fill="#bea47c" rx="64" ry="30"/><ellipse cx="2" cy="1.5" fill="#82540e" rx="2" ry="1.5" transform="matrix(1 0 0 -1 243 314)"/><g stroke="#82540e"><path d="m245 312.5c-2-45-4.8-138.8 0-154s24.667-26 34-29.5" stroke-width="4"/><path d="m244.5 312c0-12.667 0-38.4 0-40 0-2 5.5-17.5 20.5-20 12-2 32.667-8.833 41.5-12" stroke-width="3"/><path d="m244.5 312c-.833-32-2.6-97.3-3-102.5-.5-6.5-2-16.5-22.5-21.5s-34.5 0-49.5 0c-12 0-26-6.667-31.5-10" stroke-width="3"/><path d="m249 150c.4-7.6-12.833-21.5-19.5-27.5" stroke-width="3"/><path d="m155.5 185.5c-12.4 1.2-27.167 8.833-33 12.5" stroke-width="2"/></g><ellipse cx="218" cy="122.5" fill="#62cc6a" rx="17" ry="20.5" transform="matrix(.83820638 .54535315 -.54535315 .83820638 102.076769 -99.067269)"/><ellipse cx="279.255" cy="127.39" fill="#54af5b" rx="17.5" ry="10" transform="matrix(.99668589 .08134638 -.08134638 .99668589 11.288197 -22.2942)"/><ellipse cx="132.207" cy="163.489" fill="#62cc6a" rx="17" ry="20.5" transform="matrix(.99817516 -.06038497 .06038497 .99817516 -9.631022 8.281657)"/><ellipse cx="115.5" cy="202" fill="#54af5b" rx="17.5" ry="10" transform="matrix(.68389033 -.72958483 .72958483 .68389033 -110.865468 148.121202)"/><ellipse cx="317.325" cy="236.124" fill="#62cc6a" rx="17" ry="20.5" transform="matrix(.51444103 -.85752576 .85752576 .51444103 -48.402412 386.766487)"/></svg>