<svg fill="none" height="500" viewBox="0 0 1280 500" width="1280" xmlns="http://www.w3.org/2000/svg"><path d="m0 0h1280v500h-1280z" fill="#fff9f0"/><path d="m184.484 237.971c1.218-3.031 4.156-5.017 7.423-5.017h63.106c2.807 0 4.884 2.611 4.253 5.346-.77 3.337 2.426 6.22 5.666 5.112l29.309-10.027c.834-.285 1.709-.431 2.59-.431h91.43c6.891 0 10.558 8.131 5.996 13.296l-44.112 49.945c-2.658 3.009-2.673 7.523-.036 10.55l68.344 78.454c4.51 5.177.833 13.255-6.032 13.255h-118.843c-.716 0-1.428-.096-2.117-.285l-74.07-20.324c-3.925-1.077-8.033.965-9.545 4.744l-4.334 10.836c-1.215 3.037-4.157 5.029-7.428 5.029h-64.248c-5.665 0-9.535-5.726-7.423-10.983z" fill="#404040"/><ellipse cx="270" cy="307.954" fill="#bea47c" rx="64" ry="30"/><ellipse cx="2" cy="1.5" fill="#82540e" rx="2" ry="1.5" transform="matrix(1 0 0 -1 269 308.954)"/><g stroke="#82540e"><path d="m271 307.454c-2-45-4.8-138.8 0-154s24.667-26 34-29.5" stroke-width="4"/><g stroke-width="3"><path d="m270.5 306.954c0-12.667 0-38.4 0-40 0-2 5.5-17.5 20.5-20 12-2 32.667-8.833 41.5-12"/><path d="m270.5 306.954c-.833-32-2.6-97.3-3-102.5-.5-6.5-2-16.5-22.5-21.5s-34.5 0-49.5 0c-12 0-26-6.667-31.5-10"/><path d="m275 144.954c.4-7.6-12.833-21.5-19.5-27.5"/></g><path d="m181.5 180.454c-12.4 1.2-27.167 8.833-33 12.5" stroke-width="2"/></g><ellipse cx="244" cy="117.454" fill="#62cc6a" rx="17" ry="20.5" transform="matrix(.83820638 .54535315 -.54535315 .83820638 103.531551 -114.062861)"/><ellipse cx="305.255" cy="122.345" fill="#54af5b" rx="17.5" ry="10" transform="matrix(.99668589 .08134638 -.08134638 .99668589 10.963971 -24.425925)"/><ellipse cx="158.207" cy="158.443" fill="#62cc6a" rx="17" ry="20.5" transform="matrix(.99817516 -.06038497 .06038497 .99817516 -9.278874 9.842458)"/><ellipse cx="141.5" cy="196.954" fill="#54af5b" rx="17.5" ry="10" transform="matrix(.68389033 -.72958483 .72958483 .68389033 -98.965131 165.495318)"/><ellipse cx="343.325" cy="231.078" fill="#62cc6a" rx="17" ry="20.5" transform="matrix(.51444103 -.85752576 .85752576 .51444103 -31.450804 406.612027)"/><g fill="#404040"><path d="m1074.29 363.654c2.2-2 4.4-3 6.6-3 2.4 0 4.3 1.4 5.7 4.2 1.6 2.6 2.4 5.8 2.4 9.6 0 8.4-3 15.1-9 20.1-10.4 8.6-22.2 12.9-35.4 12.9-19 0-32.9-7.9-41.7-23.7-8.802-16-13.202-36.8-13.202-62.4 0-24.4 3.099-52.2 9.299-83.4 6.403-31.2 15.703-58 27.903-80.4 12.4-22.4 27.1-33.6 44.1-33.6 9.6 0 17.1 4.5 22.5 13.5 5.6 8.8 8.4 21.5 8.4 38.1 0 23.8-6.6 51.4-19.8 82.8-13 31.4-30.8 62.4-53.4 93 1.4 8.2 3.9 14.1 7.5 17.7s8.5 5.4 14.7 5.4c3.4 0 7.2-1 11.4-3 4.4-2 8.4-4.6 12-7.8zm-9.9-210c-4.6 0-9.8 8.3-15.6 24.9s-10.9 37.2-15.3 61.8-6.8 48.2-7.2 70.8c14.2-23.4 25.5-46.8 33.9-70.2 8.4-23.6 12.6-45.1 12.6-64.5 0-15.2-2.8-22.8-8.4-22.8z"/><path d="m953.059 246.354c-8.4 0-14.7-1.9-18.9-5.7-4.2-4-6.3-9.5-6.3-16.5s2.7-12.8 8.1-17.4c5.6-4.8 12.5-7.2 20.7-7.2 7.4 0 13.4 1.8 18 5.4s6.9 8.7 6.9 15.3c0 8-2.6 14.4-7.8 19.2-5.2 4.6-12.1 6.9-20.7 6.9zm-2.4 161.1c-13 0-22.5-4.6-28.5-13.8-5.8-9.2-8.7-21.4-8.7-36.6 0-9 1.1-20.5 3.3-34.5 2.4-14.2 5.4-27.4 9-39.6 1.8-6.4 4.2-10.8 7.2-13.2s7.8-3.6 14.4-3.6c10.2 0 15.3 3.4 15.3 10.2 0 5-1.9 16.6-5.7 34.8-4.8 22-7.2 36.9-7.2 44.7 0 6 .8 10.6 2.4 13.8s4.3 4.8 8.1 4.8c3.6 0 8.1-2.5 13.5-7.5s12.6-12.9 21.6-23.7c2.4-2.8 5.101-4.2 8.101-4.2 2.6 0 4.6 1.2 6 3.6 1.6 2.4 2.4 5.7 2.4 9.9 0 8-1.9 14.2-5.7 18.6-19.801 24.2-38.301 36.3-55.501 36.3z"/><path d="m931.408 313.854c2.6 0 4.6 1.3 6 3.9s2.1 5.9 2.1 9.9c0 9.6-2.9 15.3-8.7 17.1-12 4.2-25.2 6.6-39.6 7.2-3.8 16.8-11.3 30.3-22.5 40.5-11.2 10-23.9 15-38.1 15-12 0-22.3-2.9-30.9-8.7-8.4-5.8-14.8-13.5-19.2-23.1s-6.6-20-6.6-31.2c0-15.2 2.9-28.7 8.7-40.5 5.8-12 13.8-21.3 24-27.9 10.2-6.8 21.5-10.2 33.9-10.2 15.2 0 27.4 5.3 36.6 15.9 9.4 10.4 14.9 23.3 16.5 38.7 9.4-.6 20.6-2.6 33.6-6 1.6-.4 3-.6 4.2-.6zm-98.4 61.8c6.4 0 11.9-2.6 16.5-7.8 4.8-5.2 8-12.7 9.6-22.5-6.2-4.2-11-9.7-14.4-16.5-3.2-6.8-4.8-14-4.8-21.6 0-3.2.3-6.4.9-9.6h-1.5c-8 0-14.7 3.9-20.1 11.7-5.2 7.6-7.8 18.4-7.8 32.4 0 11 2.1 19.4 6.3 25.2 4.4 5.8 9.5 8.7 15.3 8.7z"/><path d="m654.1 408.354c-26.6 0-47.9-5-63.9-15-16-10.2-24-25.7-24-46.5 0-11 1.9-19.4 5.7-25.2s9.4-8.7 16.8-8.7c5.4 0 9.8 1.4 13.2 4.2s5.1 6.4 5.1 10.8c0 4-.3 7.5-.9 10.5 0 .8-.2 2.2-.6 4.2-.2 2-.3 4.1-.3 6.3 0 9 4.5 15.7 13.5 20.1 9.2 4.4 22 6.6 38.4 6.6 17 0 30.3-3 39.9-9 9.6-6.2 14.4-14.8 14.4-25.8 0-6.8-2.2-12.6-6.6-17.4-4.4-5-9.9-9.1-16.5-12.3-6.6-3.4-15.9-7.5-27.9-12.3-15.4-6-28-11.7-37.8-17.1-9.6-5.4-17.9-12.7-24.9-21.9-6.8-9.4-10.2-21-10.2-34.8 0-14.4 3.8-27.2 11.4-38.4 7.8-11.2 18.9-19.9 33.3-26.1 14.6-6.2 31.7-9.3 51.3-9.3 14.6 0 28 2.2 40.2 6.6 12.2 4.2 21.9 10.7 29.1 19.5 7.4 8.8 11.1 19.6 11.1 32.4 0 12.6-1.9 22.1-5.7 28.5s-9.4 9.6-16.8 9.6c-5.2 0-9.6-1.6-13.2-4.8-3.4-3.2-5.1-7-5.1-11.4 0-3.8.3-7.3.9-10.5.6-6 .9-9.8.9-11.4 0-8.4-4.1-14.8-12.3-19.2s-18.4-6.6-30.6-6.6c-17.2 0-30.4 3.2-39.6 9.6-9 6.2-13.5 15-13.5 26.4 0 7.6 2.3 14.1 6.9 19.5 4.8 5.4 10.7 9.9 17.7 13.5s16.8 7.9 29.4 12.9c15.2 6.2 27.4 11.8 36.6 16.8s17 11.8 23.4 20.4c6.6 8.6 9.9 19.2 9.9 31.8 0 23.6-9 41.8-27 54.6-17.8 12.6-41.7 18.9-71.7 18.9z"/></g></svg>